<mxfile host="app.diagrams.net" modified="2024-04-15T00:36:43.446Z" agent="Mozilla/5.0 (Windows NT 10.0; Win64; x64) AppleWebKit/537.36 (KHTML, like Gecko) Chrome/123.0.0.0 Safari/537.36" etag="nsyeDZANqeAGHiJcBbVx" version="24.2.5" type="device">
  <diagram name="Página-1" id="nThe7MnAhd8p3syZMoPx">
    <mxGraphModel dx="724" dy="390" grid="1" gridSize="10" guides="1" tooltips="1" connect="1" arrows="1" fold="1" page="1" pageScale="1" pageWidth="1169" pageHeight="827" math="0" shadow="0">
      <root>
        <mxCell id="0" />
        <mxCell id="1" parent="0" />
        <mxCell id="UvD_ujq4C2gQ1iOHRyR_-6" value="DEPUTADO" style="whiteSpace=wrap;html=1;align=center;" parent="1" vertex="1">
          <mxGeometry x="510" y="630" width="100" height="40" as="geometry" />
        </mxCell>
        <mxCell id="UvD_ujq4C2gQ1iOHRyR_-7" value="Nome" style="ellipse;whiteSpace=wrap;html=1;align=center;" parent="1" vertex="1">
          <mxGeometry x="510" y="720" width="100" height="40" as="geometry" />
        </mxCell>
        <mxCell id="UvD_ujq4C2gQ1iOHRyR_-9" value="Representado" style="shape=rhombus;perimeter=rhombusPerimeter;whiteSpace=wrap;html=1;align=center;" parent="1" vertex="1">
          <mxGeometry x="500" y="480" width="120" height="60" as="geometry" />
        </mxCell>
        <mxCell id="UvD_ujq4C2gQ1iOHRyR_-11" value="" style="endArrow=none;html=1;rounded=0;exitX=0.5;exitY=1;exitDx=0;exitDy=0;entryX=0.5;entryY=0;entryDx=0;entryDy=0;" parent="1" source="UvD_ujq4C2gQ1iOHRyR_-17" target="UvD_ujq4C2gQ1iOHRyR_-9" edge="1">
          <mxGeometry relative="1" as="geometry">
            <mxPoint x="188" y="401" as="sourcePoint" />
            <mxPoint x="268" y="381" as="targetPoint" />
          </mxGeometry>
        </mxCell>
        <mxCell id="UvD_ujq4C2gQ1iOHRyR_-12" value="" style="endArrow=none;html=1;rounded=0;exitX=0;exitY=0.5;exitDx=0;exitDy=0;entryX=1;entryY=0.5;entryDx=0;entryDy=0;" parent="1" source="VIbCozdg7EP16bHc_q9c-10" target="VIbCozdg7EP16bHc_q9c-4" edge="1">
          <mxGeometry relative="1" as="geometry">
            <mxPoint x="298" y="371" as="sourcePoint" />
            <mxPoint x="108" y="360" as="targetPoint" />
          </mxGeometry>
        </mxCell>
        <mxCell id="UvD_ujq4C2gQ1iOHRyR_-15" value="" style="endArrow=none;html=1;rounded=0;entryX=0.5;entryY=0;entryDx=0;entryDy=0;exitX=0.5;exitY=1;exitDx=0;exitDy=0;" parent="1" source="UvD_ujq4C2gQ1iOHRyR_-9" target="UvD_ujq4C2gQ1iOHRyR_-6" edge="1">
          <mxGeometry relative="1" as="geometry">
            <mxPoint x="368" y="401" as="sourcePoint" />
            <mxPoint x="418" y="401" as="targetPoint" />
          </mxGeometry>
        </mxCell>
        <mxCell id="UvD_ujq4C2gQ1iOHRyR_-17" value="ESTADO" style="whiteSpace=wrap;html=1;align=center;" parent="1" vertex="1">
          <mxGeometry x="510" y="350" width="100" height="40" as="geometry" />
        </mxCell>
        <mxCell id="UvD_ujq4C2gQ1iOHRyR_-19" value="Partido" style="ellipse;whiteSpace=wrap;html=1;align=center;" parent="1" vertex="1">
          <mxGeometry x="620" y="530" width="100" height="40" as="geometry" />
        </mxCell>
        <mxCell id="UvD_ujq4C2gQ1iOHRyR_-20" value="Data_inicio" style="ellipse;whiteSpace=wrap;html=1;align=center;" parent="1" vertex="1">
          <mxGeometry x="620" y="450" width="100" height="40" as="geometry" />
        </mxCell>
        <mxCell id="UvD_ujq4C2gQ1iOHRyR_-21" value="" style="endArrow=none;html=1;rounded=0;exitX=0;exitY=0.5;exitDx=0;exitDy=0;entryX=1;entryY=0;entryDx=0;entryDy=0;" parent="1" source="UvD_ujq4C2gQ1iOHRyR_-20" target="UvD_ujq4C2gQ1iOHRyR_-9" edge="1">
          <mxGeometry relative="1" as="geometry">
            <mxPoint x="108" y="381" as="sourcePoint" />
            <mxPoint x="268" y="381" as="targetPoint" />
          </mxGeometry>
        </mxCell>
        <mxCell id="UvD_ujq4C2gQ1iOHRyR_-26" value="" style="endArrow=none;html=1;rounded=0;exitX=1;exitY=1;exitDx=0;exitDy=0;entryX=0;entryY=0.5;entryDx=0;entryDy=0;" parent="1" source="UvD_ujq4C2gQ1iOHRyR_-9" target="UvD_ujq4C2gQ1iOHRyR_-19" edge="1">
          <mxGeometry relative="1" as="geometry">
            <mxPoint x="378" y="521" as="sourcePoint" />
            <mxPoint x="328" y="596" as="targetPoint" />
          </mxGeometry>
        </mxCell>
        <mxCell id="UvD_ujq4C2gQ1iOHRyR_-28" value="PROJETO_LEI" style="whiteSpace=wrap;html=1;align=center;flipH=1;" parent="1" vertex="1">
          <mxGeometry x="210" y="630" width="100" height="40" as="geometry" />
        </mxCell>
        <mxCell id="UvD_ujq4C2gQ1iOHRyR_-31" value="Data_votacao" style="ellipse;whiteSpace=wrap;html=1;align=center;direction=west;flipH=1;" parent="1" vertex="1">
          <mxGeometry x="20" y="600" width="127.5" height="40" as="geometry" />
        </mxCell>
        <mxCell id="UvD_ujq4C2gQ1iOHRyR_-34" style="edgeStyle=orthogonalEdgeStyle;rounded=0;orthogonalLoop=1;jettySize=auto;html=1;exitX=0.5;exitY=1;exitDx=0;exitDy=0;" parent="1" source="UvD_ujq4C2gQ1iOHRyR_-28" target="UvD_ujq4C2gQ1iOHRyR_-28" edge="1">
          <mxGeometry relative="1" as="geometry" />
        </mxCell>
        <mxCell id="UvD_ujq4C2gQ1iOHRyR_-38" value="Passou_ou_falhou" style="ellipse;whiteSpace=wrap;html=1;align=center;direction=west;flipH=1;" parent="1" vertex="1">
          <mxGeometry x="20" y="660" width="127.5" height="40" as="geometry" />
        </mxCell>
        <mxCell id="UvD_ujq4C2gQ1iOHRyR_-43" value="Nome_do_projeto" style="ellipse;whiteSpace=wrap;html=1;align=center;fontStyle=0;direction=west;flipH=1;" parent="1" vertex="1">
          <mxGeometry x="20" y="540" width="127.5" height="40" as="geometry" />
        </mxCell>
        <mxCell id="UvD_ujq4C2gQ1iOHRyR_-47" value="Votou" style="shape=rhombus;perimeter=rhombusPerimeter;whiteSpace=wrap;html=1;align=center;" parent="1" vertex="1">
          <mxGeometry x="350" y="570" width="120" height="60" as="geometry" />
        </mxCell>
        <mxCell id="UvD_ujq4C2gQ1iOHRyR_-50" value="Voto_atribuido" style="ellipse;whiteSpace=wrap;html=1;align=center;" parent="1" vertex="1">
          <mxGeometry x="360" y="490" width="100" height="40" as="geometry" />
        </mxCell>
        <mxCell id="UvD_ujq4C2gQ1iOHRyR_-51" value="" style="endArrow=none;html=1;rounded=0;entryX=0.5;entryY=1;entryDx=0;entryDy=0;exitX=0.5;exitY=0;exitDx=0;exitDy=0;" parent="1" source="UvD_ujq4C2gQ1iOHRyR_-47" target="UvD_ujq4C2gQ1iOHRyR_-50" edge="1">
          <mxGeometry relative="1" as="geometry">
            <mxPoint x="330" y="560" as="sourcePoint" />
            <mxPoint x="893.5" y="461" as="targetPoint" />
          </mxGeometry>
        </mxCell>
        <mxCell id="UvD_ujq4C2gQ1iOHRyR_-53" value="" style="endArrow=none;html=1;rounded=0;entryX=0;entryY=0.5;entryDx=0;entryDy=0;exitX=0;exitY=0.5;exitDx=0;exitDy=0;" parent="1" source="UvD_ujq4C2gQ1iOHRyR_-28" target="UvD_ujq4C2gQ1iOHRyR_-31" edge="1">
          <mxGeometry relative="1" as="geometry">
            <mxPoint x="220" y="630" as="sourcePoint" />
            <mxPoint x="627.25" y="401" as="targetPoint" />
            <Array as="points">
              <mxPoint x="180" y="620" />
            </Array>
          </mxGeometry>
        </mxCell>
        <mxCell id="UvD_ujq4C2gQ1iOHRyR_-54" value="" style="endArrow=none;html=1;rounded=0;entryX=0.5;entryY=1;entryDx=0;entryDy=0;exitX=0.5;exitY=0;exitDx=0;exitDy=0;" parent="1" source="VIbCozdg7EP16bHc_q9c-26" target="VIbCozdg7EP16bHc_q9c-17" edge="1">
          <mxGeometry relative="1" as="geometry">
            <mxPoint x="340" y="750" as="sourcePoint" />
            <mxPoint x="577.25" y="221" as="targetPoint" />
            <Array as="points" />
          </mxGeometry>
        </mxCell>
        <mxCell id="UvD_ujq4C2gQ1iOHRyR_-55" value="" style="endArrow=none;html=1;rounded=0;entryX=0;entryY=0.5;entryDx=0;entryDy=0;exitX=0;exitY=0.5;exitDx=0;exitDy=0;" parent="1" source="UvD_ujq4C2gQ1iOHRyR_-28" target="UvD_ujq4C2gQ1iOHRyR_-43" edge="1">
          <mxGeometry relative="1" as="geometry">
            <mxPoint x="220" y="630" as="sourcePoint" />
            <mxPoint x="594.75" y="251" as="targetPoint" />
            <Array as="points">
              <mxPoint x="180" y="560" />
            </Array>
          </mxGeometry>
        </mxCell>
        <mxCell id="UvD_ujq4C2gQ1iOHRyR_-56" value="" style="endArrow=none;html=1;rounded=0;entryX=0;entryY=0.5;entryDx=0;entryDy=0;exitX=0;exitY=0.5;exitDx=0;exitDy=0;" parent="1" source="UvD_ujq4C2gQ1iOHRyR_-28" target="UvD_ujq4C2gQ1iOHRyR_-38" edge="1">
          <mxGeometry relative="1" as="geometry">
            <mxPoint x="787.25" y="459.75" as="sourcePoint" />
            <mxPoint x="627.25" y="459.75" as="targetPoint" />
            <Array as="points">
              <mxPoint x="180" y="680" />
            </Array>
          </mxGeometry>
        </mxCell>
        <mxCell id="VIbCozdg7EP16bHc_q9c-4" value="Região" style="ellipse;whiteSpace=wrap;html=1;align=center;dashed=1;" vertex="1" parent="1">
          <mxGeometry x="250" y="350" width="100" height="40" as="geometry" />
        </mxCell>
        <mxCell id="VIbCozdg7EP16bHc_q9c-11" value="ID_projeto" style="ellipse;whiteSpace=wrap;html=1;align=center;fontStyle=4" vertex="1" parent="1">
          <mxGeometry x="20" y="720" width="127.5" height="40" as="geometry" />
        </mxCell>
        <mxCell id="VIbCozdg7EP16bHc_q9c-16" value="" style="endArrow=none;html=1;rounded=0;exitX=1;exitY=0.5;exitDx=0;exitDy=0;" edge="1" parent="1" source="VIbCozdg7EP16bHc_q9c-11">
          <mxGeometry relative="1" as="geometry">
            <mxPoint x="280" y="650" as="sourcePoint" />
            <mxPoint x="210" y="650" as="targetPoint" />
            <Array as="points">
              <mxPoint x="180" y="740" />
            </Array>
          </mxGeometry>
        </mxCell>
        <mxCell id="VIbCozdg7EP16bHc_q9c-17" value="Sancionou" style="shape=rhombus;perimeter=rhombusPerimeter;whiteSpace=wrap;html=1;align=center;" vertex="1" parent="1">
          <mxGeometry x="350" y="670" width="120" height="60" as="geometry" />
        </mxCell>
        <mxCell id="VIbCozdg7EP16bHc_q9c-20" value="" style="endArrow=none;html=1;rounded=0;exitX=1;exitY=0.5;exitDx=0;exitDy=0;entryX=0;entryY=0.5;entryDx=0;entryDy=0;" edge="1" parent="1" source="UvD_ujq4C2gQ1iOHRyR_-28" target="VIbCozdg7EP16bHc_q9c-17">
          <mxGeometry relative="1" as="geometry">
            <mxPoint x="250" y="540" as="sourcePoint" />
            <mxPoint x="410" y="540" as="targetPoint" />
          </mxGeometry>
        </mxCell>
        <mxCell id="VIbCozdg7EP16bHc_q9c-21" value="" style="endArrow=none;html=1;rounded=0;exitX=0;exitY=0.5;exitDx=0;exitDy=0;entryX=1;entryY=0.5;entryDx=0;entryDy=0;" edge="1" parent="1" source="UvD_ujq4C2gQ1iOHRyR_-6" target="UvD_ujq4C2gQ1iOHRyR_-47">
          <mxGeometry relative="1" as="geometry">
            <mxPoint x="590" y="680" as="sourcePoint" />
            <mxPoint x="420" y="580" as="targetPoint" />
          </mxGeometry>
        </mxCell>
        <mxCell id="VIbCozdg7EP16bHc_q9c-22" value="" style="endArrow=none;html=1;rounded=0;exitX=0;exitY=0.5;exitDx=0;exitDy=0;entryX=1;entryY=0.5;entryDx=0;entryDy=0;" edge="1" parent="1" source="UvD_ujq4C2gQ1iOHRyR_-6" target="VIbCozdg7EP16bHc_q9c-17">
          <mxGeometry relative="1" as="geometry">
            <mxPoint x="600" y="690" as="sourcePoint" />
            <mxPoint x="430" y="590" as="targetPoint" />
          </mxGeometry>
        </mxCell>
        <mxCell id="VIbCozdg7EP16bHc_q9c-23" value="" style="endArrow=none;html=1;rounded=0;entryX=1;entryY=0.5;entryDx=0;entryDy=0;exitX=0;exitY=0.5;exitDx=0;exitDy=0;" edge="1" parent="1" source="UvD_ujq4C2gQ1iOHRyR_-17" target="VIbCozdg7EP16bHc_q9c-10">
          <mxGeometry relative="1" as="geometry">
            <mxPoint x="560" y="350" as="sourcePoint" />
            <mxPoint x="108" y="360" as="targetPoint" />
          </mxGeometry>
        </mxCell>
        <mxCell id="VIbCozdg7EP16bHc_q9c-10" value="Nome_estado" style="ellipse;whiteSpace=wrap;html=1;align=center;fontStyle=4;" vertex="1" parent="1">
          <mxGeometry x="380" y="350" width="100" height="40" as="geometry" />
        </mxCell>
        <mxCell id="VIbCozdg7EP16bHc_q9c-25" value="" style="endArrow=none;html=1;rounded=0;entryX=0.5;entryY=1;entryDx=0;entryDy=0;exitX=0.5;exitY=0;exitDx=0;exitDy=0;" edge="1" parent="1" source="UvD_ujq4C2gQ1iOHRyR_-7" target="UvD_ujq4C2gQ1iOHRyR_-6">
          <mxGeometry relative="1" as="geometry">
            <mxPoint x="240" y="540" as="sourcePoint" />
            <mxPoint x="400" y="540" as="targetPoint" />
          </mxGeometry>
        </mxCell>
        <mxCell id="VIbCozdg7EP16bHc_q9c-26" value="Attribute" style="ellipse;whiteSpace=wrap;html=1;align=center;dashed=1;" vertex="1" parent="1">
          <mxGeometry x="360" y="770" width="100" height="40" as="geometry" />
        </mxCell>
        <mxCell id="VIbCozdg7EP16bHc_q9c-27" value="N" style="text;strokeColor=none;fillColor=none;spacingLeft=4;spacingRight=4;overflow=hidden;rotatable=0;points=[[0,0.5],[1,0.5]];portConstraint=eastwest;fontSize=12;whiteSpace=wrap;html=1;" vertex="1" parent="1">
          <mxGeometry x="490" y="665" width="40" height="30" as="geometry" />
        </mxCell>
        <mxCell id="VIbCozdg7EP16bHc_q9c-28" value="1" style="text;strokeColor=none;fillColor=none;spacingLeft=4;spacingRight=4;overflow=hidden;rotatable=0;points=[[0,0.5],[1,0.5]];portConstraint=eastwest;fontSize=12;whiteSpace=wrap;html=1;" vertex="1" parent="1">
          <mxGeometry x="310" y="665" width="30" height="30" as="geometry" />
        </mxCell>
        <mxCell id="VIbCozdg7EP16bHc_q9c-31" value="" style="endArrow=none;html=1;rounded=0;exitX=0;exitY=0.5;exitDx=0;exitDy=0;" edge="1" parent="1" source="UvD_ujq4C2gQ1iOHRyR_-47">
          <mxGeometry relative="1" as="geometry">
            <mxPoint x="350" y="600" as="sourcePoint" />
            <mxPoint x="310" y="650" as="targetPoint" />
            <Array as="points" />
          </mxGeometry>
        </mxCell>
        <mxCell id="VIbCozdg7EP16bHc_q9c-32" value="N" style="text;strokeColor=none;fillColor=none;spacingLeft=4;spacingRight=4;overflow=hidden;rotatable=0;points=[[0,0.5],[1,0.5]];portConstraint=eastwest;fontSize=12;whiteSpace=wrap;html=1;" vertex="1" parent="1">
          <mxGeometry x="490" y="605" width="40" height="30" as="geometry" />
        </mxCell>
        <mxCell id="VIbCozdg7EP16bHc_q9c-34" value="N" style="text;strokeColor=none;fillColor=none;spacingLeft=4;spacingRight=4;overflow=hidden;rotatable=0;points=[[0,0.5],[1,0.5]];portConstraint=eastwest;fontSize=12;whiteSpace=wrap;html=1;" vertex="1" parent="1">
          <mxGeometry x="310" y="605" width="40" height="30" as="geometry" />
        </mxCell>
        <mxCell id="VIbCozdg7EP16bHc_q9c-35" value="1" style="text;strokeColor=none;fillColor=none;spacingLeft=4;spacingRight=4;overflow=hidden;rotatable=0;points=[[0,0.5],[1,0.5]];portConstraint=eastwest;fontSize=12;whiteSpace=wrap;html=1;" vertex="1" parent="1">
          <mxGeometry x="560" y="390" width="40" height="30" as="geometry" />
        </mxCell>
        <mxCell id="VIbCozdg7EP16bHc_q9c-36" value="1" style="text;strokeColor=none;fillColor=none;spacingLeft=4;spacingRight=4;overflow=hidden;rotatable=0;points=[[0,0.5],[1,0.5]];portConstraint=eastwest;fontSize=12;whiteSpace=wrap;html=1;" vertex="1" parent="1">
          <mxGeometry x="560" y="600" width="40" height="30" as="geometry" />
        </mxCell>
      </root>
    </mxGraphModel>
  </diagram>
</mxfile>
